<svg height="156" viewBox="0 0 166 156" width="166" xmlns="http://www.w3.org/2000/svg"><path d="m0 51.599998c0-5 4.4-6.599998 10.2-6.599998 6.599999 0 15.2 5.599998 15.2 10 0 2.800003-3.8 5-11.2 5-9 0-14.2-3.599998-14.2-8.400002zm15 47c0-12.199996 35.599998-.199996 35.599998-20.199996 0-8.400002-15-11-15-17 0-7.599999 28.400002.799995 28.400002-12.599999 0-8.400001-13.799999-9.800003-13.799999-21 0-2.800003 1.599998-5.400009 4.599998-5.400009 13.399998 0 6 26.600006 26.200001 26.600006 7.599998 0 11.599998-5.599998 11.599998-14.199997 0-10.199997-4-13.600006-4-25.199997 0-4.600006 2.800004-9.600006 8.599999-9.600006 5.400001 0 9 5 9 10.199997 0 13.400009-6 13.800003-6 25.800003 0 18 8 22.400002 22.800003 22.400002 8.399994 0 12.600006-16 21.399994-16 7 0 9.800003 4.400001 9.800003 9 0 11-29.799995 3.400001-29.799995 28.599998 0 30 41.599998 12.599998 41.599998 31.800003 0 4.199997-2.199997 7.799995-7 7.799995-14.600006 0-12.800003-15.400001-43-15.400001-11 0-13 9.800003-13 18 0 11 7.599998 12.800003 7.599998 18.800003 0 5-4 7.399994-8.599998 7.399994-13 0 1.199997-38.599991-24.400002-38.599991-26.199996 0-16 46.199997-39.799999 46.199997-5 0-8.399999-3-8.399999-8.399994 0-20.400009 28.399999-19.800003 28.399999-41.000008 0-7.799995-6.200001-10.199996-11.399997-10.199996-10.200001 0-17.600003 6.799995-24.200001 6.799995-4.200001 0-7.200001-1.399994-7.200001-4.599999zm109 48.400002c0-5 4-9 9-9s9 4 9 9-4 9-9 9-9-4-9-9z" fill="#fff"/></svg>