<svg height="32" viewBox="0 0 32 32" width="32" xmlns="http://www.w3.org/2000/svg"><g fill="#fff" fill-rule="evenodd"><path d="m4 0c-2.20912 0-4 1.79088-4 4v5c0 2.20912 1.79088 4 4 4h5c2.20912 0 4-1.79088 4-4v-5c0-2.20912-1.79088-4-4-4z"/><path d="m23 0c-2.20912 0-4 1.79088-4 4v5c0 2.20912 1.79088 4 4 4h5c2.20912 0 4-1.79088 4-4v-5c0-2.20912-1.79088-4-4-4z"/><path d="m4 19c-2.20912 0-4 1.79088-4 4v5c0 2.20912 1.79088 4 4 4h5c2.20912 0 4-1.79088 4-4v-5c0-2.20912-1.79088-4-4-4z"/><path d="m23 19c-2.20912 0-4 1.79088-4 4v5c0 2.20912 1.79088 4 4 4h5c2.20912 0 4-1.79088 4-4v-5c0-2.20912-1.79088-4-4-4z"/></g></svg>